<svg width="32" height="32" xmlns="http://www.w3.org/2000/svg">
    <g fill="none" fill-rule="evenodd">
        <circle fill="#F5911F" cx="16" cy="16" r="16"/>
        <path d="M20.95 23v-2.68h-4.26c-.347 0-.69.01-1.03.03-.34.02-.677.057-1.01.11l3.62-3.74c.613-.653 1.083-1.22 1.41-1.7.327-.48.553-.943.68-1.39.127-.447.19-.937.19-1.47 0-.88-.193-1.55-.58-2.01-.387-.46-.927-.773-1.62-.94-.693-.167-1.52-.25-2.48-.25-.467 0-.933.01-1.4.03-.467.02-.963.063-1.49.13s-1.123.173-1.79.32l.14 2.26c.613-.053 1.15-.093 1.61-.12.46-.027.893-.043 1.3-.05.407-.007.837-.01 1.29-.01.427 0 .777.023 1.05.07.273.047.483.133.63.26.147.127.22.337.22.63.013.48-.193 1.05-.62 1.71-.427.66-1.047 1.41-1.86 2.25l-3.44 3.68c-.16.173-.273.363-.34.57-.067.207-.1.43-.1.67V23h9.88z" fill="#FFF" fill-rule="nonzero"/>
    </g>
</svg>
