<svg width="32" height="32" xmlns="http://www.w3.org/2000/svg">
    <g fill="none" fill-rule="evenodd">
        <circle fill="#F5911F" cx="16" cy="16" r="16"/>
        <path d="M15.91 23.28c1.173 0 2.11-.143 2.81-.43.7-.287 1.203-.733 1.51-1.34.307-.607.453-1.39.44-2.35-.013-1.013-.2-1.807-.56-2.38-.36-.573-1.013-.933-1.96-1.08v-.08c.573-.107 1.013-.313 1.32-.62.307-.307.52-.703.64-1.19s.18-1.043.18-1.67c0-.827-.15-1.473-.45-1.94-.3-.467-.78-.797-1.44-.99-.66-.193-1.537-.29-2.63-.29-.72 0-1.44.03-2.16.09-.72.06-1.453.157-2.2.29l.12 2.14a51.951 51.951 0 0 1 1.71-.06c.647-.013 1.317-.02 2.01-.02.56 0 .997.04 1.31.12.313.08.537.23.67.45s.2.557.2 1.01c0 .253-.017.497-.05.73a1.269 1.269 0 0 1-.24.6c-.127.167-.32.3-.58.4-.26.1-.61.15-1.05.15h-2.6v2l2.6-.02c.6 0 1.053.073 1.36.22.307.147.513.367.62.66.107.293.16.653.16 1.08 0 .547-.08.97-.24 1.27-.16.3-.427.507-.8.62-.373.113-.88.17-1.52.17-.413 0-.81-.007-1.19-.02-.38-.013-.78-.03-1.2-.05-.42-.02-.903-.05-1.45-.09l-.12 2.24c.76.107 1.547.197 2.36.27.813.073 1.62.11 2.42.11z" fill="#FFF" fill-rule="nonzero"/>
    </g>
</svg>
