<svg width="1024" height="280" xmlns="http://www.w3.org/2000/svg">
    <defs>
        <linearGradient x1="50%" y1="0%" x2="50%" y2="99.631%" id="a">
            <stop stop-color="#F1F3F5" offset="0%"/>
            <stop stop-color="#F1F3F5" offset="99.947%"/>
        </linearGradient>
        <linearGradient x1="50%" y1="0%" x2="50%" y2="99.631%" id="b">
            <stop stop-color="#F1F3F5" offset="0%"/>
            <stop stop-color="#F1F3F5" offset="99.947%"/>
        </linearGradient>
        <linearGradient x1="50%" y1="0%" x2="50%" y2="99.631%" id="c">
            <stop stop-color="#F1F3F5" offset="0%"/>
            <stop stop-color="#F1F3F5" offset="99.947%"/>
        </linearGradient>
        <linearGradient x1="50%" y1="0%" x2="50%" y2="99.631%" id="d">
            <stop stop-color="#F1F3F5" offset="0%"/>
            <stop stop-color="#F1F3F5" offset="99.947%"/>
        </linearGradient>
        <linearGradient x1="50%" y1="0%" x2="50%" y2="99.631%" id="e">
            <stop stop-color="#F1F3F5" offset="0%"/>
            <stop stop-color="#F1F3F5" offset="99.947%"/>
        </linearGradient>
    </defs>
    <g fill="none" fill-rule="evenodd">
        <path d="M8 281.001h1007.27C908.778 115.568 723.004 6 511.635 6 300.267 6 114.493 115.568 8 281.001" fill="#FAFBFC"/>
        <path d="m142.584 121.13.205.163c6.783-1.417 5.27-4.037 9.43-6.282l15.716-3.142c3.67-1.83 8.524-8.19 12.573-9.425 2.83-.861 4.718-.332 6.424.2 1.922.597 3.611 1.195 6.149-.2 6.205 3.441 4.385 6.276 15.716 6.282-1.382 3.708-.59 2.593-3.144 4.713l1.572 1.572c3.638 2.031 9.337-.81 11.001-6.285h4.715c-2.05 4.436-5.118 5.861-9.43 7.854-.301 7.77 3.03 7.114 4.715 15.709 45.712-.284 49.247-19.405 75.438-37.699 3.667-4.712 7.335-9.425 11-14.137 8.905-2.619 17.813-5.237 26.718-7.854l1.571-1.57c-1.689-1.192-1.452-.987-4.714-1.572 2.093-2.755 4.814-4.543 7.857-6.284-1.621-3.594-2.697-3.403-4.714-6.282 3.726-2.455 4.57-4.673 9.43-6.284-2.313-3.911.384-1.84-4.716-3.141 1.91-3.202 6.77-5.868 6.287-10.996-.018-.19-.374-.181-.846-.173-1.17.021-3.057.043-2.297-2.968l4.714-3.142-1.57-6.283c.433-.935 1.117-1.735 1.947-2.454-73.973 20.375-142.21 54.582-201.747 99.68" fill="url(#a)" transform="translate(8 6)"/>
        <path d="M109.786 157.422h-3.144l6.286-6.284v-3.141c-2.42 1.11-4.85 2.262-7.244 3.476a601.077 601.077 0 0 0-20.533 19.172c6.127-3.802 11.99-7.633 15.205-11.652h3.143c-5.359 7.887-7.774 11.364-9.43 20.42h-6.285c1.05-1.955 1.708-3.249 3.142-4.713v-3.142h-3.142c-2.128 4.275-4.65 9.261-7.86 12.567.314 4.078.696 5.336 1.573 7.854 5.48-.4 6.617-.55 9.43-3.141h3.143c.763 18.291-19.763 17.119-26.718 7.853-1.795-1.176 6.723-11.706 9.43-14.136v-1.572c-1.14.357-2.147.727-3.06 1.132A603.454 603.454 0 0 0 57.906 199.1c-1.415 2.252-3.01 4.225-4.697 5.447l-.196.079a601.892 601.892 0 0 0-14.5 17.199h6.837c3.84-4.135 7.904-7.582 11-12.565 2.121 2.738.115 2.652 1.572 4.712 2.19 1.142 1.986.503 4.716-1.571h3.143c-.167 3.98-.193 5.82-1.572 7.854-1.226-.28-1.029.479-3.143-3.143-3.343.796-5.683 1.406-7.857 3.143a7628.687 7628.687 0 0 0-4.716 3.14c2.332 3.884.66 2.489 6.287 3.142-2.954 8.11-11.144 10.55-15.717 17.279h-1.57c1.344-4.992 3.113-7.973 6.286-10.994v-1.572c-4.932.662-7.316 1.675-11.001 3.142l-2.356-2.355A600.158 600.158 0 0 0 0 275.001h3.289c2.294-1.242 4.441-2.654 5.914-4.482h1.572c-.815 1.643-1.88 3.117-3.103 4.482H153.31c.173-.436.336-.88.481-1.342l-1.573-10.994c2.445-6.916 13.162-14.084 17.288-20.42-2.393-.863-2.626-1.11-6.286-1.57 4.17-6.98 9.907-14.9 15.716-20.421 1.225.278 1.029-.48 3.144 3.14 10.123-3.905 10.92-15.169 22.002-18.848v-3.142c-7.09.998-9.525 3.062-12.573 7.855-5.367-1.327-3.998-.783-6.287-4.713-8.197.24-8.31.869-11 6.283h-3.143c7.008-13.418 25.895-19.227 36.146-29.846h1.572c-1.284 4.996-3.192 9.378-6.287 12.566v3.142c7.564-3.583 17.716-7.022 23.575-12.566 1.232-.975.393-.05 0-1.57-2.388-3.795-2.498-3.712-6.287-1.572-1.927-2.306-3.493-6.597-4.715-9.425-13.495.661-24.806 3.038-33.003-4.712-9.86.55-10.874 6.174-14.145 12.567-17.836-.29-24.468 5.452-39.29 9.425.041 7.869-.417 10.832-4.716 14.137v4.712c4.087-1.7 6.66-2.842 12.574-3.14-1.067 7.888-4.034 12.242-9.43 15.707 2.66 4.233 4.118 3.922 4.716 10.995-5.922.49-7.111 1.393-11.002 3.142-.862-2.392-1.109-2.626-1.572-6.284-13.915 2.762-22.692 16.896-34.575 18.85-1.242.204-2.45-.285-4.168-.774-1.648-.47-3.765-.94-6.833-.797 2.1-18.502 17.83-23.11 20.43-40.84 1.081 1.207 2.07 3.5 3.144 4.713 6.37 2.634 14.085-8.343 22.002-14.139v-1.57c-6.306 1.09-11.826 2.466-17.288 7.854h-1.57c4.18-5.504 10.164-9.994 12.571-17.279h1.573c-2.116-5.171-.52-5.257-6.287-6.282v-1.572l28.289-14.137h6.286c-3.593 12.981-9.091 11.847-17.286 21.991h-3.145c8.891 5.735 17.504-6.995 23.575-9.425 8.777-3.514 15.404-.147 22.002-4.712 9.61-6.65 7.726-16.983 15.716-25.132v-4.713c-19.22 4.767-58.47 2.65-73.865 17.279" fill="url(#b)" transform="translate(8 6)"/>
        <path d="M648.636 32.624c5.249 6.52 16.439 6.177 23.468 10.936h3.13v-1.562l-12.517-7.812c3.42-5.852 10.908-7.166 19.399-7.11a596.679 596.679 0 0 0-12.826-3.836c-6.352 3.678-15.347 6.506-20.654 9.384" fill="url(#c)" transform="translate(8 6)"/>
        <path d="M509.84 34.803c-5.49 1.813-11.419 5.323-18.881 6.304 1.618 1.271.386.58 3.147 1.576v1.575c-4.94 1.608-39.376 21.578-40.908 25.211-1.271 1.62-.583.387-1.574 3.15 1.87 1.786 3.376 4.003 4.72 6.304h12.587c-1.04 2.94-1.565 6.163-1.573 11.03-8.655 1.28-17.03 5.836-22.027 11.029-5.484-1.459-2.845.946-3.147-4.727-12.558-2.343-16.99-4.892-23.601-12.605-15.563.66-8.847 8.746-11.014 11.03-4.196 1.575-8.393 3.15-12.588 4.727-1.532 1.567-1.905 6.252-3.146 7.879v3.15c3.648-.357 4.437-.31 6.293-1.575 10.506-.977 8.16-4.623 12.588-11.03v-1.576c3.649 1.171 3.513 1.635 6.293 3.152-1.282 4.322-2.05 6.419-3.147 7.879v3.15l26.748-7.879c.524.526 1.05 1.053 1.574 1.576-6.177 5.059-16.817 4.86-23.601 9.455h-1.574c3.475 2.58 10.6 4.462 14.161 6.302v6.303l-29.895 4.727c-.779 5.5 1.082 8.652 0 11.029 1.02 5.577 1.079 5.334 4.72 7.879.87.47 2.394.233 3.918-.004 1.537-.24 3.075-.478 3.95.004 2.716 1.017 1.54.307 3.146 1.576-16.408 10.699-27.211 30.526-39.335 45.694.182 8.465 5.715 12.51 1.574 23.636 10.444 6.1 27.482 17.577 40.908 18.907 7.866.78 28.92-11.786 34.615-14.18 11.65-4.896 24.009 3.748 34.615 6.303-1 3.514-1.163 4.162-3.147 6.303.86 4.44 17.131 28 20.453 31.513-.19 1.876-.729 3.66-1.396 5.421h99.949c-.646-3.417-1.877-6.244-4.148-8.574.336-25.07 21.792-29.897 36.187-40.967 4.37-3.358 5.61-10.25 9.443-14.18v-1.576c-6.776.199-17.87 1.18-22.029-1.576-19.812-1.392-39.278-40.803-51.922-53.572v-1.576c10.34 7.36 24.546 12.704 26.747 28.362 12.85 2.23 14.165 11.294 15.734 22.06 23.508.026 51.344-5.131 64.51-14.182 1.05-.524 2.097-1.05 3.147-1.576v-3.15c-4.106-1.967-10.316-6.914-14.16-7.88-2.635-.66-5.047-.135-7.486.392-3.071.662-6.183 1.324-9.823-.392-5.525-2.602-8.038-9.455-14.16-12.604v-6.303c8.352.798 17.254 17.896 26.748 12.605 3.647.358 4.437.311 6.293 1.576 1.193 1.694.988 1.456 1.574 4.726 11.193 1.138 28.204 3.834 36.188 9.455 6.038 4.249 8.062 19.492 18.881 14.18 5.792 3.828.736 8.4 3.147 15.757 2.126 6.488 8.182 20.89 12.587 26.788 2.804 1.928 6.63 1.99 9.44 0h1.574c-1.016 2.72-.308 1.542-1.574 3.15v7.879c2.717 1.017 1.54.308 3.148 1.575 4.905-.952 3.825-.27 6.293-3.151-.063-5.358-6.548-7.801-4.72-23.635 15.732-.884 31.523-11.814 40.908-3.152 8.175 3.28 9.928 16.404 12.588 25.213h9.44c.15 8.265-1.28 17.269-.387 24.328h5.55c.649-2.975 1.434-4.156 2.704-6.997l3.146-1.577c1.418 3.07 2.867 6.02 4.704 8.574h21.629c-1.541-3.54-3.992-6.08-7.452-8.574.627-3.237.39-3.036 1.574-4.725v-3.152c4.29.037 7.21.061 9.44 1.576h3.147c-1.017 2.72-.31 1.541-1.574 3.151.313 4.09.695 5.35 1.574 7.879h7.866c-.512-3.637-.732-3.915-1.572-6.303 2.438-.617 5.664.248 8.998 1.112 4.073 1.057 8.307 2.113 11.455.462h22.027c1.702-10.064-2.222-14.452-3.146-25.21h7.867c-.524-.525-1.05-1.05-1.573-1.576-2.67-3.396-3.798-4.033-9.44-4.726.625-3.239.39-3.039 1.574-4.727 1.49-1.714 3.973-.188 6.292 1.576 0 0 5.884-.17 3.147 1.575-.408 4.01 8.775 4.24 11.014 9.455 2.365 5.505-2.803 4.727 3.146 9.453-1.018 5.577-1.076 5.334-4.72 7.879 4.245 3.958 12.61 8.107 17.308 11.03-1.824 2.112-2.67 2.177-3.634 3.845h12.01c-4.08-2.346-7.593-5.215-9.95-8.574 0 0-2.773-12.607-3.146-18.907 15.26 1.44 29.87 14.248 44.055 3.153 1.807-1.447 2.759-3.194 3.681-5.016-60.915-83.32-142.846-150.29-237.99-193.137l1.446 4.344c-3.74-1.915-5.574-2.957-7.867-6.303h-7.867c1.976 4.105 3.8 8.845 7.867 11.03-.872 1.978-1.892 4.758-3.146 6.302-1.54.93-2.988.132-7.868 0l3.147-3.151c.174-.157-3.47-14.886-3.147-18.909-1.921-1.007-3.16-1.623-4.323-2.611-1.531-.617-3.071-1.216-4.607-1.82-6.996.99-10.754 3.412-16.244 6.007 1.355 6.937 3.816 7.299 11.014 7.878v3.152c-14.128-4.045-25.364-12.429-42.482-14.181 2.107 2.068 5.002 3.418 7.867 4.727v3.152c-5.159-1.239-4.524-3.516-7.867-4.728H657.74c-4.449-.309-5.633-2.664-7.867-3.151-6.39-1.393-32.882 5.056-37.762 6.303-2.503.639-5.127.548-7.604.458-3.122-.113-6.012-.228-8.13 1.118l-1.573 1.575h1.573v1.575c-1.979-.872-4.753-1.894-6.294-3.15-5.634.664-4.11-.836-4.72 3.15l-9.44-1.575c-.628-3.238-.391-3.036-1.573-4.727v-1.576c9.438.524 18.883 1.052 28.32 1.576v-4.727c-10.576-1.661-33.926-12.468-42.48-7.879 0 0-6.174-.354-3.147-1.576l1.572-1.574c-8.18-.527-17.25-1.386-26.114-1.386-7.985 0-15.802.696-22.661 2.96m1.573 36.241h1.573c-2-1.737-5.572-3.489-7.866-4.726 1.567-6.177 11.61-12.47 17.307-14.181 2.684-1.96 6.476-2.517 7.867-1.576h3.147v1.576c-5.132 1.663-9.022 4.222-14.16 6.302v7.879h-6.295l1.574 3.151c9.611.2 21.063.808 26.748-3.151h7.867c-2.87 4.6-18.107 4.925-25.175 4.726v3.152c4.857-.17 6.354-.928 7.867 0h3.148c-3.085 4.727-8.134 2.162-15.734 1.575v4.727c-2.517 2.136-1.823.964-3.147 4.727-7.26-.63-14.564-2.478-20.454 1.576h-12.587c.844-2.384 1.267-3.633 1.523-7.216l.029-.407c1.318 1.19 2.774 2.347 4.74 2.896.783.219 1.594.32 2.423.32 7.488 0 16.441-8.198 19.605-11.35m-34.615 6.303c-2.715-1.018-1.54-.308-3.146-1.576h3.146c3.421-.94 5.315 1.085 7.552 3.137-3.757-.155-5.572-.217-7.552-1.56m75.524 40.967c1.859-4.183 3.065-3.283 4.72-7.879 3.346-.798 5.69-1.41 7.867-3.15 6.308 1.206 6.704 5.158 11.014 6.302 3.712.984 4.112-1.398 6.294-1.577 9.439-.767 16.066 3.4 20.453 7.88h1.573l-1.573 3.15c-14.912-1.328-36.238-6.9-48.776 1.576h-1.572c2.332-5.08 3.271-2.146 0-6.302m81.013-5.345c2.89-.464 6.376.069 7.102.297l.458 4.964c3.674 8.253-1.51 4.81-1.788 11.81-.128 3.237-2.014 5.755-2.997 7.632-.61 1.167-.127 2.085-.92 2.777-.468.405-.957.311-1.456.216-.35-.066-.703-.131-1.058-.03-.795.233-1.597 1.503-2.363 1.394-.328-.047-1.208-1.696-2.053-2.375-.858-.69-1.683-.417-1.861-1.454-.225-1.305 1.778-2.762 1.354-4.062-.511-1.575.195-2.921.055-3.487-.216-.879-1.62-1.793-1.889-2.646-.307-.982.495-1.883-.182-2.555-1.025-1.02-.792-2.012-1.621-2.976-.716-.833-2.778-1.647-3.466-2.447-.84-.977-.229-1.932-.062-2.875.19-1.075.879-2.658 2.5-2.658.958 0 2.872-1.456 4.426-1.45.76.003 1.431 1.28 1.866 1.459a.271.271 0 0 0 .1.017c.565 0 2.101-1.27 3.855-1.551m-125.068 16.374 1.573-1.575c-6.74-4.495-11.431-7.828-20.454-11.03l-1.574-3.151h1.574c.785-.479 22.47 3.432 26.748 6.302 3.163 2.127 4.49 6.986 7.866 9.454-1.382 3.72-.591 2.6-3.146 4.727v1.576c5.412-.131 13.173-.38 14.161 0h9.44v-1.576c-5.026-1.933-6.722-5.198-11.014-7.878v-3.151c12.007.465 13.32 6.163 20.453 11.03 3.196 2.062 19.9 1.815 29.895 1.575v9.454c-1.048 1.05-2.097 2.101-3.147 3.15-11.072 1.875-23.098.368-35.638-1.138-8.387-1.008-17.006-2.016-25.723-2.012.626 3.237.39 3.036 1.573 4.727v1.576c-8.511-.277-27.67-1.61-33.042-6.303-2.1-2.578-2.686-4.984-3.146-9.454-17.839.786-43.393 4.622-53.496 14.181h-11.014v-1.576c11.966-2.461 16.523-4.895 20.454-15.756 4.723-1.25 5.53-2.436 11.014-3.152-.627-3.238-.392-3.036-1.573-4.727 8.148-5.455 17.52-.244 25.174-7.878l4.72 4.727c-2.175 2.338-5.101 4.6-7.866 6.303v6.302c3.646-.357 4.437-.31 6.293-1.575h3.147c-1-3.516-1.163-4.163-3.147-6.303v-1.576l20.455 1.576 1.573 1.576v4.727c-4.072-.848-6.96-1.542-12.588-1.576v4.727l15.734 1.576c1.224-5.985 1.758-4.466 4.72-7.879" fill="url(#d)" transform="translate(8 6)"/>
        <path d="M331.604 80.992h-1.597c1.717 1.192 1.475.988 4.793 1.572v1.574c-1.066.523-2.13 1.049-3.196 1.573-2.657 1.438-4.126.32-9.586 0 .636 3.23.395 3.03 1.597 4.718.097.07 41.191-10.339 47.934-12.582.886-1.978 1.92-4.751 3.196-6.293v-1.572a89.788 89.788 0 0 0-3.284-.058c-12.938 0-34.016 2.478-39.857 11.068" fill="url(#e)" transform="translate(8 6)"/>
    </g>
</svg>
