<svg width="40" height="40" xmlns="http://www.w3.org/2000/svg">
    <path d="M29.782 15.61c.015.218.015.437.015.655 0 6.673-5.078 14.36-14.36 14.36-2.86 0-5.515-.828-7.75-2.266.407.048.797.063 1.22.063 2.358 0 4.53-.797 6.264-2.157a5.056 5.056 0 0 1-4.718-3.5c.312.048.625.08.954.08.452 0 .906-.063 1.327-.173a5.047 5.047 0 0 1-4.046-4.954v-.061a5.094 5.094 0 0 0 2.281.64 5.042 5.042 0 0 1-2.25-4.203c0-.937.25-1.797.688-2.547a14.344 14.344 0 0 0 10.406 5.28 5.648 5.648 0 0 1-.125-1.155 5.044 5.044 0 0 1 5.046-5.047 5.03 5.03 0 0 1 3.688 1.594A9.921 9.921 0 0 0 31.625 11a5.036 5.036 0 0 1-2.218 2.783c1.015-.11 2-.392 2.906-.782-.688 1-1.548 1.89-2.532 2.61M20.002 0C8.953 0 0 8.954 0 20c0 11.045 8.953 20 20 20 11.044 0 20-8.955 20-20C40 8.954 31.044 0 20 0" fill="#FFF" fill-rule="evenodd"/>
</svg>
