<svg width="40" height="40" xmlns="http://www.w3.org/2000/svg">
    <path d="M8.662 28.847c-.13.08-.13.29 0 .475.128.186.346.266.45.186.13-.105.13-.315 0-.5-.112-.186-.322-.266-.45-.16m.918 1.184c-.129.105-.08.348.105.5.186.186.42.21.525.081.104-.105.056-.347-.105-.5-.177-.186-.42-.21-.525-.08M6.968 27.16c-.056.105.025.234.185.315.129.08.291.056.347-.056.056-.105-.025-.234-.186-.315-.161-.05-.29-.024-.346.056m.871.654c-.105.08-.081.266.056.418.129.13.315.187.42.082.104-.082.08-.267-.057-.42-.129-.13-.314-.185-.419-.08M19.741 0C8.557 0 .002 8.492.002 19.677c0 8.944 5.628 16.598 13.668 19.291 1.032.185 1.396-.452 1.396-.976 0-.5-.025-3.259-.025-4.952 0 0-5.645 1.21-6.83-2.403 0 0-.92-2.346-2.242-2.951 0 0-1.846-1.266.128-1.243 0 0 2.01.162 3.113 2.082 1.768 3.112 4.726 2.217 5.88 1.685.185-1.29.709-2.185 1.29-2.718-4.509-.5-9.056-1.154-9.056-8.911 0-2.218.612-3.33 1.903-4.75-.21-.525-.896-2.686.21-5.476C11.12 7.83 15 10.532 15 10.532a18.958 18.958 0 0 1 5.065-.685c1.718 0 3.451.234 5.064.685 0 0 3.879-2.709 5.564-2.177 1.105 2.798.42 4.95.21 5.476 1.291 1.427 2.081 2.54 2.081 4.75 0 7.782-4.75 8.402-9.259 8.911.743.638 1.371 1.848 1.371 3.743 0 2.716-.023 6.08-.023 6.74 0 .525.371 1.162 1.395.976C34.533 36.275 40 28.62 40 19.677 40 8.492 30.927 0 19.741 0m-5.306 30.903c-.234.057-.395.21-.371.395.025.162.234.267.476.21.234-.057.395-.21.372-.37-.026-.155-.243-.26-.477-.235m-3.564.137c-.056.162.105.347.347.396.21.08.451 0 .5-.161.049-.163-.105-.348-.348-.42-.208-.057-.443.023-.498.185m2.507.363c0 .162-.186.29-.42.29-.265.024-.451-.105-.451-.29 0-.16.186-.29.42-.29.241-.025.451.104.451.29" fill="#393C4F" fill-rule="evenodd"/>
</svg>
