<svg width="40" height="40" xmlns="http://www.w3.org/2000/svg">
    <path d="M20 0c11.045 0 20 8.955 20 20s-8.955 20-20 20S0 31.045 0 20 8.955 0 20 0zm-6.65 11.65A8.35 8.35 0 1 0 21.7 20a8.35 8.35 0 0 0-8.351-8.35zm13.608.309c-2.22 0-4.02 3.6-4.02 8.041 0 4.441 1.8 8.041 4.02 8.041 2.222 0 4.022-3.6 4.022-8.041 0-4.441-1.8-8.041-4.022-8.041zm6.496.927c-.854 0-1.547 3.185-1.547 7.114s.693 7.114 1.547 7.114C34.307 27.114 35 23.929 35 20s-.693-7.114-1.546-7.114z" fill="#393C4F" fill-rule="evenodd"/>
</svg>
